<svg width="46" height="46" viewBox="0 0 46 46" fill="none" xmlns="http://www.w3.org/2000/svg">
<path d="M0 23C0 10.2975 10.2975 0 23 0C35.7025 0 46 10.2975 46 23C46 35.7025 35.7025 46 23 46C10.2975 46 0 35.7025 0 23Z" fill="#E6F8FF"/>
<path d="M20.2416 9.3342C20.2416 9.3342 21.8429 10.2929 21.7887 14.3518C21.7345 18.4107 20.2416 19.3093 20.2416 19.3093" stroke="#C2EBFF" stroke-width="6.12188" stroke-linecap="round"/>
<g filter="url(#filter0_i_4576_24498)">
<path fill-rule="evenodd" clip-rule="evenodd" d="M23.5575 7.76151C24.426 6.31146 26.3055 5.83966 27.7558 6.7078L26.1835 9.33378C27.6815 6.83166 27.755 6.7149 27.7607 6.71073L27.7753 6.71952C27.7819 6.72354 27.789 6.72801 27.7958 6.73222C27.8094 6.74061 27.8235 6.74941 27.8378 6.75858C27.8668 6.7771 27.8977 6.79731 27.9296 6.81913C27.9936 6.86287 28.0635 6.91355 28.1376 6.97148C28.2861 7.08752 28.4516 7.23293 28.6259 7.4119C28.977 7.7725 29.3501 8.25688 29.6855 8.89335C30.3609 10.1753 30.8244 11.9548 30.7919 14.3924C30.7832 15.0474 30.7405 15.6527 30.6728 16.2117L32.8154 16.2342C34.8466 16.255 35.9178 17.7774 35.2089 19.6355L30.7177 31.409C30.0086 33.267 27.787 34.7569 25.7558 34.7361L13.0673 34.6062C11.0363 34.5853 9.96485 33.062 10.6738 31.2039L15.165 19.4314C15.8738 17.5735 18.0948 16.084 20.1259 16.1043L24.4823 16.1482C24.5758 15.7265 24.6589 15.1292 24.6698 14.3103C24.6914 12.6895 24.3812 11.9589 24.2695 11.7469C24.2595 11.7279 24.2499 11.7121 24.2421 11.699C23.0873 10.7534 22.768 9.08041 23.5575 7.76151ZM24.539 11.9148C24.5504 11.9221 24.5621 11.9298 24.5741 11.9373C24.5802 11.941 24.5865 11.9453 24.5927 11.949C24.5957 11.9508 24.5994 11.9521 24.6025 11.9539C24.6038 11.9547 24.6054 11.9562 24.6064 11.9568L24.6073 11.9559C24.5736 11.9356 24.5404 11.9147 24.5077 11.8934C24.5179 11.9001 24.5282 11.9079 24.539 11.9148Z" fill="url(#paint0_linear_4576_24498)"/>
</g>
<path d="M19.9564 25.4177C19.9564 26.1269 20.1831 26.8071 20.5867 27.3086C20.9902 27.8101 21.5374 28.0919 22.1081 28.0919C22.6788 28.0919 23.226 27.8101 23.6296 27.3086C24.0331 26.8071 24.2598 26.1269 24.2598 25.4177L22.1081 25.4177L19.9564 25.4177Z" fill="white"/>
<path d="M20.2421 25.4281C20.2421 25.9335 20.404 26.4182 20.6923 26.7756C20.9805 27.133 21.3714 27.3338 21.779 27.3338C22.1866 27.3338 22.5775 27.133 22.8658 26.7756C23.154 26.4183 23.3159 25.9335 23.3159 25.4281L21.779 25.4281L20.2421 25.4281Z" fill="#303030"/>
<circle cx="20.9609" cy="25.9697" r="0.322749" fill="white"/>
<path d="M15.6327 25.4177C15.6327 26.1269 15.8594 26.8071 16.2629 27.3086C16.6664 27.8101 17.2137 28.0919 17.7844 28.0919C18.355 28.0919 18.9023 27.8101 19.3058 27.3086C19.7093 26.8071 19.936 26.1269 19.936 25.4177L17.7844 25.4177L15.6327 25.4177Z" fill="white"/>
<path d="M15.9179 25.4281C15.9179 25.9335 16.0798 26.4182 16.368 26.7756C16.6563 27.133 17.0472 27.3338 17.4548 27.3338C17.8624 27.3338 18.2533 27.133 18.5416 26.7756C18.8298 26.4183 18.9917 25.9335 18.9917 25.4281L17.4548 25.4281L15.9179 25.4281Z" fill="#303030"/>
<circle cx="16.6367" cy="25.9697" r="0.322749" fill="white"/>
<path d="M21.6098 28.7799C21.6098 29.3368 20.8278 29.7882 19.8632 29.7882C18.8986 29.7882 18.1167 29.3368 18.1167 28.7799C18.1167 28.2231 18.8986 27.7716 19.8632 27.7716C20.8278 27.7716 21.6098 28.2231 21.6098 28.7799Z" fill="url(#paint1_linear_4576_24498)"/>
<path d="M21.6098 28.7799C21.6098 29.3368 20.8278 29.7882 19.8632 29.7882C18.8986 29.7882 18.1167 29.3368 18.1167 28.7799C18.1167 28.2231 18.8986 27.7716 19.8632 27.7716C20.8278 27.7716 21.6098 28.2231 21.6098 28.7799Z" fill="url(#paint2_radial_4576_24498)" fill-opacity="0.2"/>
<path d="M21.6098 28.7799C21.6098 29.3368 20.8278 29.7882 19.8632 29.7882C18.8986 29.7882 18.1167 29.3368 18.1167 28.7799C18.1167 28.2231 18.8986 27.7716 19.8632 27.7716C20.8278 27.7716 21.6098 28.2231 21.6098 28.7799Z" fill="url(#paint3_radial_4576_24498)" fill-opacity="0.2"/>
<g filter="url(#filter1_f_4576_24498)">
<ellipse cx="19.7377" cy="28.6539" rx="0.756232" ry="0.414127" fill="url(#paint4_linear_4576_24498)"/>
</g>
<path d="M26.0957 38.1392C26.3791 38.3436 26.5635 38.6762 26.5635 39.0523C26.5634 39.4251 26.2615 39.7271 25.8887 39.7271H21.2969C20.9242 39.7269 20.6222 39.425 20.6221 39.0523C20.6221 38.6764 20.8066 38.3436 21.0898 38.1392V34.5191H26.0957V38.1392Z" fill="#E9E6FF"/>
<path d="M19.7812 38.1392C20.0646 38.3436 20.249 38.6762 20.249 39.0523C20.2489 39.4251 19.9471 39.7271 19.5742 39.7271H14.9824C14.6098 39.7269 14.3077 39.425 14.3076 39.0523C14.3076 38.6764 14.4922 38.3436 14.7754 38.1392V34.5191H19.7812V38.1392Z" fill="#E9E6FF"/>
<path d="M19.9909 25.2739C19.9703 25.1971 20.0159 25.1181 20.0927 25.0974L22.7361 24.3882C22.8129 24.3676 22.8919 24.4132 22.9125 24.49L22.9682 24.6976C22.9871 24.7678 22.9507 24.841 22.8834 24.8684L20.3287 25.908C20.2485 25.9407 20.1577 25.8956 20.1353 25.8119L19.9909 25.2739Z" fill="black"/>
<path d="M19.7488 25.2739C19.7694 25.1971 19.7238 25.1181 19.647 25.0974L17.0037 24.3882C16.9268 24.3676 16.8478 24.4132 16.8272 24.49L16.7715 24.6976C16.7527 24.7678 16.789 24.841 16.8563 24.8684L19.411 25.908C19.4913 25.9407 19.582 25.8956 19.6045 25.8119L19.7488 25.2739Z" fill="black"/>
<circle cx="25.0853" cy="9.31625" r="1.49446" fill="url(#paint5_radial_4576_24498)"/>
<circle cx="18.9632" cy="9.31625" r="1.49446" fill="url(#paint6_radial_4576_24498)"/>
<g filter="url(#filter2_f_4576_24498)">
<path d="M16.4604 20.9298C16.4604 20.9298 16.8426 19.6412 17.4761 19.0237C18.3848 18.1379 19.8815 18.2319 19.8815 18.2319" stroke="url(#paint7_radial_4576_24498)" stroke-width="1.80055" stroke-linecap="round"/>
</g>
<ellipse cx="21.3841" cy="38.5061" rx="0.486149" ry="0.198061" transform="rotate(-16.4205 21.3841 38.5061)" fill="url(#paint8_radial_4576_24498)"/>
<path d="M23.9948 38.0345C23.9948 37.7958 23.8449 37.5668 23.5782 37.398C23.3114 37.2291 22.9496 37.1343 22.5723 37.1343C22.1951 37.1343 21.8333 37.2291 21.5665 37.398C21.2998 37.5668 21.1499 37.7958 21.1499 38.0345C21.1499 38.0345 21.7621 37.9265 22.5723 37.9265C23.3826 37.9265 23.9948 38.0345 23.9948 38.0345Z" fill="url(#paint9_radial_4576_24498)" fill-opacity="0.5"/>
<path d="M17.8009 38.0345C17.8009 37.7958 17.6511 37.5668 17.3843 37.398C17.1175 37.2291 16.7557 37.1343 16.3785 37.1343C16.0012 37.1343 15.6394 37.2291 15.3727 37.398C15.1059 37.5668 14.9561 37.7958 14.9561 38.0345C14.9561 38.0345 15.5682 37.9265 16.3785 37.9265C17.1887 37.9265 17.8009 38.0345 17.8009 38.0345Z" fill="url(#paint10_radial_4576_24498)" fill-opacity="0.5"/>
<ellipse cx="15.118" cy="38.5061" rx="0.486149" ry="0.198061" transform="rotate(-16.4205 15.118 38.5061)" fill="url(#paint11_radial_4576_24498)"/>
<g filter="url(#filter3_di_4576_24498)">
<path d="M26.1985 28.0696C27.1506 27.0509 29.0689 26.7578 30.2047 27.4575C30.9204 27.8984 31.1383 28.6339 30.7618 29.3379L29.3403 31.9959C28.5994 33.3814 26.2844 34.0909 24.6418 33.4358C23.2503 32.8808 22.9331 31.5633 23.9334 30.493L26.1985 28.0696Z" fill="url(#paint12_linear_4576_24498)" shape-rendering="crispEdges"/>
</g>
<circle cx="24.734" cy="31.7983" r="1.18836" transform="rotate(-6.17003 24.734 31.7983)" fill="url(#paint13_radial_4576_24498)"/>
<defs>
<filter id="filter0_i_4576_24498" x="9.01464" y="6.27277" width="26.4131" height="29.3998" filterUnits="userSpaceOnUse" color-interpolation-filters="sRGB">
<feFlood flood-opacity="0" result="BackgroundImageFix"/>
<feBlend mode="normal" in="SourceGraphic" in2="BackgroundImageFix" result="shape"/>
<feColorMatrix in="SourceAlpha" type="matrix" values="0 0 0 0 0 0 0 0 0 0 0 0 0 0 0 0 0 0 127 0" result="hardAlpha"/>
<feOffset dx="-1.44044" dy="0.936287"/>
<feGaussianBlur stdDeviation="1.08033"/>
<feComposite in2="hardAlpha" operator="arithmetic" k2="-1" k3="1"/>
<feColorMatrix type="matrix" values="0 0 0 0 1 0 0 0 0 1 0 0 0 0 1 0 0 0 0.4 0"/>
<feBlend mode="normal" in2="shape" result="effect1_innerShadow_4576_24498"/>
</filter>
<filter id="filter1_f_4576_24498" x="18.8374" y="28.0957" width="1.80078" height="1.11634" filterUnits="userSpaceOnUse" color-interpolation-filters="sRGB">
<feFlood flood-opacity="0" result="BackgroundImageFix"/>
<feBlend mode="normal" in="SourceGraphic" in2="BackgroundImageFix" result="shape"/>
<feGaussianBlur stdDeviation="0.0720221" result="effect1_foregroundBlur_4576_24498"/>
</filter>
<filter id="filter2_f_4576_24498" x="14.8398" y="16.6085" width="6.66212" height="5.94206" filterUnits="userSpaceOnUse" color-interpolation-filters="sRGB">
<feFlood flood-opacity="0" result="BackgroundImageFix"/>
<feBlend mode="normal" in="SourceGraphic" in2="BackgroundImageFix" result="shape"/>
<feGaussianBlur stdDeviation="0.360111" result="effect1_foregroundBlur_4576_24498"/>
</filter>
<filter id="filter3_di_4576_24498" x="22.8094" y="26.6429" width="8.35047" height="7.4714" filterUnits="userSpaceOnUse" color-interpolation-filters="sRGB">
<feFlood flood-opacity="0" result="BackgroundImageFix"/>
<feColorMatrix in="SourceAlpha" type="matrix" values="0 0 0 0 0 0 0 0 0 0 0 0 0 0 0 0 0 0 127 0" result="hardAlpha"/>
<feOffset dx="-0.324099" dy="0.216066"/>
<feGaussianBlur stdDeviation="0.108033"/>
<feComposite in2="hardAlpha" operator="out"/>
<feColorMatrix type="matrix" values="0 0 0 0 0.657432 0 0 0 0 0.729134 0 0 0 0 0.786001 0 0 0 0.3 0"/>
<feBlend mode="normal" in2="BackgroundImageFix" result="effect1_dropShadow_4576_24498"/>
<feBlend mode="normal" in="SourceGraphic" in2="effect1_dropShadow_4576_24498" result="shape"/>
<feColorMatrix in="SourceAlpha" type="matrix" values="0 0 0 0 0 0 0 0 0 0 0 0 0 0 0 0 0 0 127 0" result="hardAlpha"/>
<feOffset dx="0.216066" dy="-0.432133"/>
<feGaussianBlur stdDeviation="0.270083"/>
<feComposite in2="hardAlpha" operator="arithmetic" k2="-1" k3="1"/>
<feColorMatrix type="matrix" values="0 0 0 0 0.709442 0 0 0 0 0.810486 0 0 0 0 0.976487 0 0 0 0.3 0"/>
<feBlend mode="normal" in2="shape" result="effect2_innerShadow_4576_24498"/>
</filter>
<linearGradient id="paint0_linear_4576_24498" x1="15.2303" y1="35.3756" x2="17.7487" y2="13.9482" gradientUnits="userSpaceOnUse">
<stop stop-color="#EFE7FF"/>
<stop offset="1" stop-color="#B5E9FF"/>
</linearGradient>
<linearGradient id="paint1_linear_4576_24498" x1="19.0657" y1="27.7608" x2="19.6183" y2="29.9078" gradientUnits="userSpaceOnUse">
<stop stop-color="#EEDBFF"/>
<stop offset="1" stop-color="#C29BE4"/>
</linearGradient>
<radialGradient id="paint2_radial_4576_24498" cx="0" cy="0" r="1" gradientTransform="matrix(0.161793 1.19146 -1.91153 0.0755507 19.7014 28.5968)" gradientUnits="userSpaceOnUse">
<stop offset="0.461527" stop-color="white" stop-opacity="0"/>
<stop offset="0.600361" stop-color="white"/>
<stop offset="0.757959" stop-color="white" stop-opacity="0"/>
</radialGradient>
<radialGradient id="paint3_radial_4576_24498" cx="0" cy="0" r="1" gradientTransform="matrix(0.595966 1.13604 -1.82262 0.278291 19.761 28.6075)" gradientUnits="userSpaceOnUse">
<stop offset="0.696658" stop-color="#C29BE4" stop-opacity="0"/>
<stop offset="0.861784" stop-color="#9C68C9"/>
<stop offset="1" stop-color="#8800FF" stop-opacity="0"/>
</radialGradient>
<linearGradient id="paint4_linear_4576_24498" x1="20.3745" y1="28.9182" x2="19.3992" y2="28.1395" gradientUnits="userSpaceOnUse">
<stop stop-color="#C29BE4"/>
<stop offset="1" stop-color="#D3B5ED"/>
</linearGradient>
<radialGradient id="paint5_radial_4576_24498" cx="0" cy="0" r="1" gradientUnits="userSpaceOnUse" gradientTransform="translate(25.0853 9.31625) rotate(90) scale(1.49446)">
<stop stop-color="white" stop-opacity="0.6"/>
<stop offset="1" stop-color="white" stop-opacity="0"/>
</radialGradient>
<radialGradient id="paint6_radial_4576_24498" cx="0" cy="0" r="1" gradientUnits="userSpaceOnUse" gradientTransform="translate(18.9632 9.31625) rotate(90) scale(1.49446)">
<stop stop-color="white" stop-opacity="0.6"/>
<stop offset="1" stop-color="white" stop-opacity="0"/>
</radialGradient>
<radialGradient id="paint7_radial_4576_24498" cx="0" cy="0" r="1" gradientTransform="matrix(-1.33635 2.44292 -3.09436 -1.70772 17.6632 19.0746)" gradientUnits="userSpaceOnUse">
<stop stop-color="white" stop-opacity="0.7"/>
<stop offset="1" stop-color="white" stop-opacity="0"/>
</radialGradient>
<radialGradient id="paint8_radial_4576_24498" cx="0" cy="0" r="1" gradientUnits="userSpaceOnUse" gradientTransform="translate(21.3841 38.5061) scale(0.486149 0.198061)">
<stop stop-color="white"/>
<stop offset="1" stop-color="white" stop-opacity="0"/>
</radialGradient>
<radialGradient id="paint9_radial_4576_24498" cx="0" cy="0" r="1" gradientUnits="userSpaceOnUse" gradientTransform="translate(22.5723 38.0345) scale(1.42244 0.900276)">
<stop stop-color="#B6B1DF"/>
<stop offset="1" stop-color="#E9E6FF" stop-opacity="0"/>
</radialGradient>
<radialGradient id="paint10_radial_4576_24498" cx="0" cy="0" r="1" gradientUnits="userSpaceOnUse" gradientTransform="translate(16.3785 38.0345) scale(1.42244 0.900276)">
<stop stop-color="#B6B1DF"/>
<stop offset="1" stop-color="#E9E6FF" stop-opacity="0"/>
</radialGradient>
<radialGradient id="paint11_radial_4576_24498" cx="0" cy="0" r="1" gradientUnits="userSpaceOnUse" gradientTransform="translate(15.118 38.5061) scale(0.486149 0.198061)">
<stop stop-color="white"/>
<stop offset="1" stop-color="white" stop-opacity="0"/>
</radialGradient>
<linearGradient id="paint12_linear_4576_24498" x1="24.3445" y1="33.2699" x2="31.6528" y2="30.534" gradientUnits="userSpaceOnUse">
<stop stop-color="#DAE8FF"/>
<stop offset="0.858628" stop-color="#DAE8FF" stop-opacity="0.5"/>
<stop offset="1" stop-color="#DAE8FF" stop-opacity="0"/>
</linearGradient>
<radialGradient id="paint13_radial_4576_24498" cx="0" cy="0" r="1" gradientUnits="userSpaceOnUse" gradientTransform="translate(24.734 31.7983) rotate(90) scale(1.18836)">
<stop stop-color="white" stop-opacity="0.6"/>
<stop offset="1" stop-color="white" stop-opacity="0"/>
</radialGradient>
</defs>
</svg>
