<svg width="28" height="31" viewBox="0 0 28 31" fill="none" xmlns="http://www.w3.org/2000/svg">
<path d="M20.5918 14.4856C22.9499 14.4857 24.9939 16.1032 24.9941 18.2483C24.9941 20.3935 22.9501 22.0118 20.5918 22.012C18.2334 22.012 16.1895 20.3936 16.1895 18.2483C16.1897 16.1032 18.2335 14.4856 20.5918 14.4856Z" fill="black" stroke="white" stroke-width="0.852071"/>
<rect x="19.0295" y="17.7516" width="0.710059" height="0.852071" rx="0.35503" fill="white"/>
<rect x="20.3076" y="17.7516" width="0.710059" height="0.852071" rx="0.35503" fill="white"/>
<rect x="21.5858" y="17.7516" width="0.710059" height="0.852071" rx="0.35503" fill="white"/>
<g filter="url(#filter0_dd_4576_12238)">
<path d="M23.1026 1.42022L23.1087 2.27227L23.1091 2.27227L23.1026 1.42022ZM25.1289 4.2376L25.925 4.54134L25.9251 4.54118L25.1289 4.2376ZM18.7744 20.8929L17.9783 20.5891L17.9783 20.5891L18.7744 20.8929ZM18.4991 21.4515L17.768 21.0138L17.735 21.0688L17.7107 21.1282L18.4991 21.4515ZM14.6299 24.178L14.5701 23.3281L13.7778 23.3838V24.178H14.6299ZM14.6299 27.0618H13.7778V27.4974L14.1309 27.7525L14.6299 27.0618ZM15.0254 27.8323L15.8775 27.8328V27.8323L15.0254 27.8323ZM14.4551 28.4026V29.2547L14.4559 29.2547L14.4551 28.4026ZM10.5772 28.4026L10.5772 29.2547H10.5772V28.4026ZM10.0069 27.8323L9.1548 27.8323L9.1548 27.8328L10.0069 27.8323ZM10.4024 27.0608L10.9005 27.7521L11.2544 27.4971V27.0608H10.4024ZM10.4024 24.1458H11.2544V23.302L10.4107 23.2938L10.4024 24.1458ZM8.9053 24.1312L8.91364 23.2791L8.25304 23.2727L8.08221 23.9108L8.9053 24.1312ZM8.09964 27.1409L7.27655 26.9206L7.20704 27.1803L7.29912 27.4328L8.09964 27.1409ZM8.1221 27.6263L8.94512 27.8469L8.94516 27.8467L8.1221 27.6263ZM7.13187 28.1985L6.91141 29.0216L6.91197 29.0217L7.13187 28.1985ZM3.63187 27.261L3.41133 28.0841L3.4114 28.0841L3.63187 27.261ZM3.20999 26.5296L2.38697 26.309L2.38694 26.3091L3.20999 26.5296ZM4.14261 25.7747L4.18703 26.6256L4.70158 26.5988L4.91679 26.1306L4.14261 25.7747ZM4.91702 24.0901L5.69121 24.446L6.24056 23.251L4.9254 23.2381L4.91702 24.0901ZM3.62601 24.0774L3.61716 24.9295L3.61763 24.9295L3.62601 24.0774ZM1.60452 21.2044L2.40062 21.5081L2.40063 21.5081L1.60452 21.2044ZM5.39749 11.262L4.60141 10.9582L4.60139 10.9583L5.39749 11.262ZM9.58792 8.45147L9.59665 7.59944L9.59656 7.59944L9.58792 8.45147ZM17.0205 8.52764L17.0118 9.37967L17.6051 9.38575L17.8166 8.83144L17.0205 8.52764ZM18.6387 4.28741L17.8426 3.98359L17.8426 3.98361L18.6387 4.28741ZM22.833 1.42217L22.8269 0.570124L22.8265 0.570127L22.833 1.42217ZM23.1026 1.42022L23.1091 2.27227C23.7607 2.26729 24.1238 2.49875 24.2924 2.73314C24.4574 2.96262 24.5528 3.35693 24.3328 3.93402L25.1289 4.2376L25.9251 4.54118C26.3033 3.54929 26.2442 2.52835 25.6759 1.73811C25.111 0.952781 24.1618 0.560037 23.0961 0.568173L23.1026 1.42022ZM25.1289 4.2376L24.3328 3.93387L17.9783 20.5891L18.7744 20.8929L19.5705 21.1966L25.925 4.54134L25.1289 4.2376ZM18.7744 20.8929L17.9783 20.5891C17.9264 20.7253 17.8559 20.8669 17.768 21.0138L18.4991 21.4515L19.2301 21.8892C19.3588 21.6742 19.4766 21.4428 19.5705 21.1966L18.7744 20.8929ZM18.4991 21.4515L17.7107 21.1282C17.2469 22.2592 15.8696 23.2366 14.5701 23.3281L14.6299 24.178L14.6898 25.028C16.5994 24.8935 18.5643 23.5383 19.2874 21.7747L18.4991 21.4515ZM14.6299 24.178H13.7778V27.0618H14.6299H15.482V24.178H14.6299ZM14.6299 27.0618L14.1309 27.7525C14.1596 27.7732 14.1733 27.8025 14.1734 27.8324L15.0254 27.8323L15.8775 27.8323C15.8775 27.2276 15.5781 26.6956 15.1289 26.3711L14.6299 27.0618ZM15.0254 27.8323L14.1734 27.8319C14.1734 27.676 14.2992 27.5507 14.4543 27.5506L14.4551 28.4026L14.4559 29.2547C15.2402 29.254 15.8771 28.6179 15.8775 27.8328L15.0254 27.8323ZM14.4551 28.4026V27.5506H10.5772V28.4026V29.2547H14.4551V28.4026ZM10.5772 28.4026L10.5772 27.5506C10.7334 27.5506 10.8589 27.6769 10.8589 27.8319L10.0069 27.8323L9.1548 27.8328C9.15523 28.6173 9.79132 29.2547 10.5772 29.2547L10.5772 28.4026ZM10.0069 27.8323L10.8589 27.8324C10.8589 27.8005 10.8735 27.7716 10.9005 27.7521L10.4024 27.0608L9.9042 26.3696C9.45239 26.6952 9.15483 27.2288 9.1548 27.8323L10.0069 27.8323ZM10.4024 27.0608H11.2544V24.1458H10.4024H9.5503V27.0608H10.4024ZM10.4024 24.1458L10.4107 23.2938L8.91364 23.2791L8.9053 24.1312L8.89697 24.9832L10.394 24.9978L10.4024 24.1458ZM8.9053 24.1312L8.08221 23.9108L7.27655 26.9206L8.09964 27.1409L8.92273 27.3612L9.7284 24.3515L8.9053 24.1312ZM8.09964 27.1409L7.29912 27.4328C7.29861 27.4314 7.29761 27.428 7.29733 27.4227C7.29703 27.417 7.29766 27.411 7.29904 27.4058L8.1221 27.6263L8.94516 27.8467C9.0378 27.5009 9.01131 27.1539 8.90016 26.849L8.09964 27.1409ZM8.1221 27.6263L7.29908 27.4057C7.30522 27.3828 7.32857 27.3691 7.35177 27.3753L7.13187 28.1985L6.91197 29.0217C7.79771 29.2584 8.70781 28.7323 8.94512 27.8469L8.1221 27.6263ZM7.13187 28.1985L7.35233 27.3755L3.85233 26.438L3.63187 27.261L3.4114 28.0841L6.91141 29.0216L7.13187 28.1985ZM3.63187 27.261L3.8524 26.438C3.98959 26.4748 4.06925 26.6149 4.03305 26.7501L3.20999 26.5296L2.38694 26.3091C2.18018 27.081 2.63742 27.8767 3.41133 28.0841L3.63187 27.261ZM3.20999 26.5296L4.03301 26.7502C4.0519 26.6797 4.11429 26.6294 4.18703 26.6256L4.14261 25.7747L4.09818 24.9238C3.31132 24.9649 2.60297 25.5031 2.38697 26.309L3.20999 26.5296ZM4.14261 25.7747L4.91679 26.1306L5.69121 24.446L4.91702 24.0901L4.14284 23.7342L3.36843 25.4188L4.14261 25.7747ZM4.91702 24.0901L4.9254 23.2381L3.63439 23.2254L3.62601 24.0774L3.61763 24.9295L4.90864 24.9422L4.91702 24.0901ZM3.62601 24.0774L3.63485 23.2254C2.98753 23.2187 2.61897 22.9804 2.44445 22.7323C2.27298 22.4886 2.18123 22.0832 2.40062 21.5081L1.60452 21.2044L0.808425 20.9007C0.429162 21.8947 0.49059 22.9169 1.05074 23.713C1.60785 24.5048 2.54937 24.9184 3.61716 24.9295L3.62601 24.0774ZM1.60452 21.2044L2.40063 21.5081L6.1936 11.5657L5.39749 11.262L4.60139 10.9583L0.808417 20.9007L1.60452 21.2044ZM5.39749 11.262L6.19357 11.5658C6.41761 10.9787 6.90444 10.4015 7.54863 9.96943C8.19199 9.53788 8.92431 9.29686 9.57928 9.3035L9.58792 8.45147L9.59656 7.59944C8.53618 7.58869 7.47266 7.96838 6.59933 8.55418C5.72684 9.13941 4.97612 9.97624 4.60141 10.9582L5.39749 11.262ZM9.58792 8.45147L9.57919 9.3035L17.0118 9.37967L17.0205 8.52764L17.0293 7.67561L9.59665 7.59944L9.58792 8.45147ZM17.0205 8.52764L17.8166 8.83144L19.4348 4.59121L18.6387 4.28741L17.8426 3.98361L16.2245 8.22384L17.0205 8.52764ZM18.6387 4.28741L19.4348 4.59123C19.6595 4.00229 20.1488 3.41768 20.797 2.97487C21.4443 2.53268 22.1811 2.27926 22.8396 2.27422L22.833 1.42217L22.8265 0.570127C21.7675 0.578232 20.7065 0.972864 19.8357 1.56772C18.9659 2.16196 18.2167 3.0034 17.8426 3.98359L18.6387 4.28741ZM22.833 1.42217L22.8392 2.27422L23.1087 2.27227L23.1026 1.42022L23.0964 0.568171L22.8269 0.570124L22.833 1.42217Z" fill="white"/>
</g>
<path fill-rule="evenodd" clip-rule="evenodd" d="M23.1027 1.42042C24.8201 1.40731 25.7274 2.66881 25.1291 4.2378L18.7746 20.8941C18.7017 21.0852 18.6075 21.2708 18.4992 21.4517C17.9058 22.899 16.2347 24.0653 14.6301 24.1782V27.062C14.8689 27.2346 15.0246 27.5153 15.0246 27.8325C15.0244 28.1473 14.7691 28.4028 14.4543 28.4028H10.5773C10.2625 28.4028 10.0072 28.1473 10.007 27.8325C10.007 27.5148 10.1631 27.2336 10.4025 27.061V24.146L8.90546 24.1314L8.0998 27.1411C8.15473 27.2918 8.1669 27.4598 8.12226 27.6265C8.00665 28.0577 7.56332 28.314 7.13202 28.1987L3.63202 27.2612C3.3137 27.1759 3.12491 26.8481 3.21015 26.5298C3.32758 26.0916 3.71299 25.7974 4.14277 25.7749L4.91718 24.0903L3.62616 24.0776C1.91109 24.0598 1.00603 22.7737 1.60468 21.2046L5.39765 11.2622C5.99636 9.69308 7.87272 8.43431 9.58808 8.45167L17.0207 8.52784L18.6389 4.28761C19.2377 2.71847 21.1157 1.43552 22.8332 1.42237L23.1027 1.42042Z" fill="url(#paint0_linear_4576_12238)"/>
<path d="M3.84871 25.9788C3.95605 25.9472 4.05834 25.9363 4.13576 25.9441C4.17438 25.9481 4.20622 25.9563 4.22946 25.9684C4.25253 25.9805 4.26583 25.9954 4.27088 26.0122C4.27587 26.0292 4.27308 26.0496 4.26011 26.0724C4.24711 26.0952 4.22488 26.1195 4.19456 26.1437C4.13374 26.1922 4.04191 26.2385 3.93457 26.2702C3.82737 26.3017 3.72578 26.3124 3.64845 26.3046C3.60984 26.3007 3.57803 26.2924 3.55475 26.2803C3.5315 26.2682 3.51806 26.2525 3.51306 26.2356C3.50818 26.2187 3.51121 26.199 3.52411 26.1763C3.53709 26.1535 3.55927 26.1293 3.58965 26.1051C3.6504 26.0566 3.74154 26.0105 3.84871 25.9788Z" fill="url(#paint1_radial_4576_12238)" stroke="url(#paint2_radial_4576_12238)" stroke-width="0.0304121"/>
<path d="M5.51435 25.4436C5.81986 25.5255 6.0922 25.6802 6.2706 25.8738C6.44308 26.061 6.51194 26.2676 6.47076 26.4511C6.46964 26.4506 6.46821 26.4506 6.46699 26.4501C6.45266 26.4437 6.43091 26.4347 6.40349 26.423C6.34847 26.3993 6.26833 26.3652 6.16752 26.3264C5.96558 26.2486 5.68016 26.1493 5.34905 26.0606C5.01818 25.9719 4.722 25.9154 4.50828 25.8818C4.40138 25.865 4.31421 25.8543 4.25468 25.8472C4.22539 25.8437 4.20264 25.8408 4.18707 25.8392C4.18552 25.839 4.18375 25.8381 4.18235 25.8379C4.23848 25.6583 4.40222 25.5141 4.64531 25.4383C4.89648 25.36 5.20904 25.3619 5.51435 25.4436Z" fill="url(#paint3_radial_4576_12238)" fill-opacity="0.5" stroke="url(#paint4_radial_4576_12238)" stroke-width="0.0304121"/>
<path d="M12.5398 26.4106C12.8561 26.4106 13.1592 26.4896 13.3816 26.6303C13.5966 26.7665 13.7166 26.9482 13.7244 27.1362C13.7232 27.136 13.7218 27.1364 13.7205 27.1362C13.705 27.1337 13.6816 27.1307 13.6521 27.1264C13.5928 27.1179 13.5066 27.1056 13.3992 27.0942C13.184 27.0713 12.8826 27.0493 12.5398 27.0493C12.1972 27.0493 11.8965 27.0714 11.6814 27.0942C11.5738 27.1056 11.4868 27.1178 11.4275 27.1264C11.3983 27.1306 11.3756 27.1337 11.3601 27.1362C11.3586 27.1364 11.3566 27.136 11.3552 27.1362C11.363 26.9482 11.4838 26.7665 11.699 26.6303C11.9213 26.4897 12.2237 26.4106 12.5398 26.4106Z" fill="url(#paint5_radial_4576_12238)" fill-opacity="0.5" stroke="url(#paint6_radial_4576_12238)" stroke-width="0.0304121"/>
<path d="M9.61508 12.5431H11.9256C11.9844 12.5431 12.0321 12.5908 12.0321 12.6496V12.8302C12.0321 12.8839 11.9925 12.93 11.9393 12.9367L9.62778 13.2247C9.56426 13.2327 9.50864 13.1833 9.50864 13.1193V12.6496C9.50864 12.5908 9.5563 12.5431 9.61508 12.5431Z" fill="black" stroke="url(#paint7_radial_4576_12238)" stroke-width="0.0304121"/>
<path d="M9.12759 12.5431L6.81705 12.5431C6.75826 12.5431 6.7106 12.5908 6.7106 12.6496L6.7106 12.8302C6.7106 12.8839 6.75014 12.93 6.80338 12.9367L9.1149 13.2247C9.17842 13.2327 9.23404 13.1833 9.23404 13.1193L9.23404 12.6496C9.23404 12.5908 9.18638 12.5431 9.12759 12.5431Z" fill="black" stroke="url(#paint8_radial_4576_12238)" stroke-width="0.0304121"/>
<circle cx="21.8697" cy="3.57112" r="1.2469" fill="url(#paint9_radial_4576_12238)" stroke="url(#paint10_radial_4576_12238)" stroke-width="0.0304121"/>
<g filter="url(#filter1_f_4576_12238)">
<path d="M6.49213 12.5275C6.49213 12.5275 6.81489 11.4392 7.34984 10.9178C8.1173 10.1697 9.38128 10.249 9.38128 10.249" stroke="url(#paint11_radial_4576_12238)" stroke-width="1.52061" stroke-linecap="round"/>
</g>
<path d="M7.43179 13.2701C8.42558 13.2702 9.2355 14.2734 9.2355 15.5162C9.23535 16.7588 8.42549 17.7611 7.43179 17.7613C6.43798 17.7613 5.62726 16.7589 5.62711 15.5162C5.62711 14.2732 6.43788 13.2701 7.43179 13.2701Z" fill="white" stroke="url(#paint12_radial_4576_12238)" stroke-width="0.0259589"/>
<path d="M11.066 13.2701C12.0598 13.2702 12.8698 14.2734 12.8698 15.5162C12.8696 16.7588 12.0597 17.7611 11.066 17.7613C10.0722 17.7613 9.26151 16.7589 9.26135 15.5162C9.26135 14.2733 10.0721 13.2701 11.066 13.2701Z" fill="white" stroke="url(#paint13_radial_4576_12238)" stroke-width="0.0259589"/>
<path d="M10.7022 14.1267C11.4094 14.1267 11.9874 14.839 11.9874 15.7234C11.9874 16.6079 11.4094 17.3201 10.7022 17.3201C9.99508 17.32 9.41708 16.6078 9.41708 15.7234C9.41712 14.839 9.9951 14.1268 10.7022 14.1267Z" fill="#303030" stroke="url(#paint14_radial_4576_12238)" stroke-width="0.0259589"/>
<path d="M7.06802 14.1267C7.7752 14.1267 8.35315 14.839 8.35318 15.7234C8.35318 16.6079 7.77522 17.3201 7.06802 17.3201C6.36087 17.32 5.78287 16.6078 5.78287 15.7234C5.7829 14.839 6.36089 14.1268 7.06802 14.1267Z" fill="#303030" stroke="url(#paint15_radial_4576_12238)" stroke-width="0.0259589"/>
<circle cx="9.91063" cy="14.75" r="0.259589" fill="white" stroke="url(#paint16_radial_4576_12238)" stroke-width="0.0259589"/>
<circle cx="6.27635" cy="14.75" r="0.259589" fill="white" stroke="url(#paint17_radial_4576_12238)" stroke-width="0.0259589"/>
<path d="M9.23572 17.3456C9.96518 17.3456 10.5599 18.0301 10.5599 18.8778C10.5598 19.7253 9.96507 20.409 9.23572 20.4091C8.50635 20.4091 7.91167 19.7253 7.9115 18.8778C7.9115 18.0301 8.50624 17.3456 9.23572 17.3456Z" fill="url(#paint18_linear_4576_12238)"/>
<path d="M9.23572 17.3456C9.96518 17.3456 10.5599 18.0301 10.5599 18.8778C10.5598 19.7253 9.96507 20.409 9.23572 20.4091C8.50635 20.4091 7.91167 19.7253 7.9115 18.8778C7.9115 18.0301 8.50624 17.3456 9.23572 17.3456Z" fill="url(#paint19_radial_4576_12238)" fill-opacity="0.2"/>
<path d="M9.23572 17.3456C9.96518 17.3456 10.5599 18.0301 10.5599 18.8778C10.5598 19.7253 9.96507 20.409 9.23572 20.4091C8.50635 20.4091 7.91167 19.7253 7.9115 18.8778C7.9115 18.0301 8.50624 17.3456 9.23572 17.3456Z" fill="url(#paint20_radial_4576_12238)" fill-opacity="0.2"/>
<path d="M9.23572 17.3456C9.96518 17.3456 10.5599 18.0301 10.5599 18.8778C10.5598 19.7253 9.96507 20.409 9.23572 20.4091C8.50635 20.4091 7.91167 19.7253 7.9115 18.8778C7.9115 18.0301 8.50624 17.3456 9.23572 17.3456Z" stroke="url(#paint21_radial_4576_12238)" stroke-width="0.0259589"/>
<g filter="url(#filter2_f_4576_12238)">
<ellipse cx="9.15547" cy="18.7962" rx="0.57783" ry="0.714684" fill="url(#paint22_linear_4576_12238)"/>
<path d="M9.15576 18.0942C9.46515 18.0944 9.72021 18.4063 9.72021 18.7964C9.72015 19.1864 9.4651 19.4974 9.15576 19.4976C8.84629 19.4976 8.5904 19.1866 8.59033 18.7964C8.59033 18.4061 8.84624 18.0942 9.15576 18.0942Z" stroke="url(#paint23_radial_4576_12238)" stroke-width="0.0259589"/>
</g>
<g filter="url(#filter3_di_4576_12238)">
<path d="M15.0506 19.6862C15.9816 20.4073 16.3779 21.9975 15.8783 23.0072C15.5634 23.6435 14.962 23.8842 14.3405 23.6226L11.9944 22.6349C10.7714 22.12 9.99399 20.2288 10.4166 18.7964C10.7745 17.5829 11.8576 17.2133 12.8357 17.9708L15.0506 19.6862Z" fill="url(#paint24_linear_4576_12238)" shape-rendering="crispEdges"/>
<path d="M15.043 19.711C15.9614 20.4223 16.3524 21.9914 15.8596 22.9875C15.5489 23.6151 14.9553 23.8521 14.3423 23.594L11.9968 22.6069C10.7878 22.098 10.0191 20.2282 10.4367 18.8122C10.7906 17.6126 11.8618 17.2471 12.8287 17.996L15.043 19.711Z" stroke="url(#paint25_radial_4576_12238)" stroke-width="0.0511705" shape-rendering="crispEdges"/>
</g>
<circle cx="11.8007" cy="18.7462" r="0.988393" transform="rotate(78.5226 11.8007 18.7462)" fill="url(#paint26_radial_4576_12238)" stroke="url(#paint27_radial_4576_12238)" stroke-width="0.0304121"/>
<defs>
<filter id="filter0_dd_4576_12238" x="6.85453e-06" y="-7.7486e-07" width="27.017" height="30.3908" filterUnits="userSpaceOnUse" color-interpolation-filters="sRGB">
<feFlood flood-opacity="0" result="BackgroundImageFix"/>
<feColorMatrix in="SourceAlpha" type="matrix" values="0 0 0 0 0 0 0 0 0 0 0 0 0 0 0 0 0 0 127 0" result="hardAlpha"/>
<feOffset dx="0.284024" dy="0.568047"/>
<feGaussianBlur stdDeviation="0.284024"/>
<feComposite in2="hardAlpha" operator="out"/>
<feColorMatrix type="matrix" values="0 0 0 0 0 0 0 0 0 0 0 0 0 0 0 0 0 0 0.08 0"/>
<feBlend mode="normal" in2="BackgroundImageFix" result="effect1_dropShadow_4576_12238"/>
<feColorMatrix in="SourceAlpha" type="matrix" values="0 0 0 0 0 0 0 0 0 0 0 0 0 0 0 0 0 0 127 0" result="hardAlpha"/>
<feOffset/>
<feGaussianBlur stdDeviation="0.284024"/>
<feComposite in2="hardAlpha" operator="out"/>
<feColorMatrix type="matrix" values="0 0 0 0 0 0 0 0 0 0 0 0 0 0 0 0 0 0 0.04 0"/>
<feBlend mode="normal" in2="effect1_dropShadow_4576_12238" result="effect2_dropShadow_4576_12238"/>
<feBlend mode="normal" in="SourceGraphic" in2="effect2_dropShadow_4576_12238" result="shape"/>
</filter>
<filter id="filter1_f_4576_12238" x="5.12339" y="8.87803" width="5.62646" height="5.0182" filterUnits="userSpaceOnUse" color-interpolation-filters="sRGB">
<feFlood flood-opacity="0" result="BackgroundImageFix"/>
<feBlend mode="normal" in="SourceGraphic" in2="BackgroundImageFix" result="shape"/>
<feGaussianBlur stdDeviation="0.304121" result="effect1_foregroundBlur_4576_12238"/>
</filter>
<filter id="filter2_f_4576_12238" x="8.45599" y="17.9599" width="1.39897" height="1.67266" filterUnits="userSpaceOnUse" color-interpolation-filters="sRGB">
<feFlood flood-opacity="0" result="BackgroundImageFix"/>
<feBlend mode="normal" in="SourceGraphic" in2="BackgroundImageFix" result="shape"/>
<feGaussianBlur stdDeviation="0.0608242" result="effect1_foregroundBlur_4576_12238"/>
</filter>
<filter id="filter3_di_4576_12238" x="9.81385" y="17.4254" width="6.73812" height="6.75748" filterUnits="userSpaceOnUse" color-interpolation-filters="sRGB">
<feFlood flood-opacity="0" result="BackgroundImageFix"/>
<feColorMatrix in="SourceAlpha" type="matrix" values="0 0 0 0 0 0 0 0 0 0 0 0 0 0 0 0 0 0 127 0" result="hardAlpha"/>
<feOffset dx="-0.304121" dy="0.0304121"/>
<feGaussianBlur stdDeviation="0.0912363"/>
<feComposite in2="hardAlpha" operator="out"/>
<feColorMatrix type="matrix" values="0 0 0 0 0.657432 0 0 0 0 0.729134 0 0 0 0 0.786001 0 0 0 0.3 0"/>
<feBlend mode="normal" in2="BackgroundImageFix" result="effect1_dropShadow_4576_12238"/>
<feBlend mode="normal" in="SourceGraphic" in2="effect1_dropShadow_4576_12238" result="shape"/>
<feColorMatrix in="SourceAlpha" type="matrix" values="0 0 0 0 0 0 0 0 0 0 0 0 0 0 0 0 0 0 127 0" result="hardAlpha"/>
<feOffset dx="0.669066" dy="0.547418"/>
<feGaussianBlur stdDeviation="0.228091"/>
<feComposite in2="hardAlpha" operator="arithmetic" k2="-1" k3="1"/>
<feColorMatrix type="matrix" values="0 0 0 0 0.709442 0 0 0 0 0.810486 0 0 0 0 0.976487 0 0 0 0.3 0"/>
<feBlend mode="normal" in2="shape" result="effect2_innerShadow_4576_12238"/>
</filter>
<linearGradient id="paint0_linear_4576_12238" x1="19.4753" y1="9.14487" x2="3.78268" y2="25.7604" gradientUnits="userSpaceOnUse">
<stop stop-color="#B5E9FF"/>
<stop offset="1" stop-color="#E9E6FF"/>
</linearGradient>
<radialGradient id="paint1_radial_4576_12238" cx="0" cy="0" r="1" gradientUnits="userSpaceOnUse" gradientTransform="translate(3.89197 26.1242) rotate(-16.4205) scale(0.410563 0.167267)">
<stop stop-color="white"/>
<stop offset="1" stop-color="white" stop-opacity="0"/>
</radialGradient>
<radialGradient id="paint2_radial_4576_12238" cx="0" cy="0" r="1" gradientTransform="matrix(-0.222133 0.380918 -0.772216 0.00705715 3.75738 26.0987)" gradientUnits="userSpaceOnUse">
<stop stop-color="white" stop-opacity="0.7"/>
<stop offset="1" stop-color="white" stop-opacity="0"/>
</radialGradient>
<radialGradient id="paint3_radial_4576_12238" cx="0" cy="0" r="1" gradientUnits="userSpaceOnUse" gradientTransform="translate(5.32172 26.163) rotate(15) scale(1.20128 0.760303)">
<stop stop-color="#B6B1DF"/>
<stop offset="1" stop-color="#E9E6FF" stop-opacity="0"/>
</radialGradient>
<radialGradient id="paint4_radial_4576_12238" cx="0" cy="0" r="1" gradientTransform="matrix(-1.08451 0.421365 -1.97466 -1.0268 5.11241 25.5662)" gradientUnits="userSpaceOnUse">
<stop stop-color="white" stop-opacity="0.7"/>
<stop offset="1" stop-color="white" stop-opacity="0"/>
</radialGradient>
<radialGradient id="paint5_radial_4576_12238" cx="0" cy="0" r="1" gradientUnits="userSpaceOnUse" gradientTransform="translate(12.5399 27.1553) scale(1.20128 0.760303)">
<stop stop-color="#A09BC1"/>
<stop offset="1" stop-color="#E9E6FF" stop-opacity="0"/>
</radialGradient>
<radialGradient id="paint6_radial_4576_12238" cx="0" cy="0" r="1" gradientTransform="matrix(-0.938498 0.687699 -2.17313 -0.480737 12.1833 26.633)" gradientUnits="userSpaceOnUse">
<stop stop-color="white" stop-opacity="0.7"/>
<stop offset="1" stop-color="white" stop-opacity="0"/>
</radialGradient>
<radialGradient id="paint7_radial_4576_12238" cx="0" cy="0" r="1" gradientTransform="matrix(-0.997897 0.660191 -2.31067 -0.461507 10.3911 12.756)" gradientUnits="userSpaceOnUse">
<stop stop-color="white" stop-opacity="0.7"/>
<stop offset="1" stop-color="white" stop-opacity="0"/>
</radialGradient>
<radialGradient id="paint8_radial_4576_12238" cx="0" cy="0" r="1" gradientTransform="matrix(0.997897 0.660191 2.31067 -0.461507 8.35156 12.756)" gradientUnits="userSpaceOnUse">
<stop stop-color="white" stop-opacity="0.7"/>
<stop offset="1" stop-color="white" stop-opacity="0"/>
</radialGradient>
<radialGradient id="paint9_radial_4576_12238" cx="0" cy="0" r="1" gradientUnits="userSpaceOnUse" gradientTransform="translate(21.8697 3.57112) rotate(90) scale(1.2621)">
<stop stop-color="white" stop-opacity="0.6"/>
<stop offset="1" stop-color="white" stop-opacity="0"/>
</radialGradient>
<radialGradient id="paint10_radial_4576_12238" cx="0" cy="0" r="1" gradientTransform="matrix(-0.986017 2.28316 -2.28316 -1.59605 21.495 3.09934)" gradientUnits="userSpaceOnUse">
<stop stop-color="white" stop-opacity="0.7"/>
<stop offset="1" stop-color="white" stop-opacity="0"/>
</radialGradient>
<radialGradient id="paint11_radial_4576_12238" cx="0" cy="0" r="1" gradientTransform="matrix(-1.12857 2.0631 -2.61326 -1.44221 7.50784 10.9607)" gradientUnits="userSpaceOnUse">
<stop stop-color="white" stop-opacity="0.7"/>
<stop offset="1" stop-color="white" stop-opacity="0"/>
</radialGradient>
<radialGradient id="paint12_radial_4576_12238" cx="0" cy="0" r="1" gradientTransform="matrix(-1.41963 4.08552 -3.2872 -2.85599 6.89207 14.6716)" gradientUnits="userSpaceOnUse">
<stop stop-color="white" stop-opacity="0.7"/>
<stop offset="1" stop-color="white" stop-opacity="0"/>
</radialGradient>
<radialGradient id="paint13_radial_4576_12238" cx="0" cy="0" r="1" gradientTransform="matrix(-1.41963 4.08552 -3.2872 -2.85599 10.5263 14.6716)" gradientUnits="userSpaceOnUse">
<stop stop-color="white" stop-opacity="0.7"/>
<stop offset="1" stop-color="white" stop-opacity="0"/>
</radialGradient>
<radialGradient id="paint14_radial_4576_12238" cx="0" cy="0" r="1" gradientTransform="matrix(-1.01402 2.91152 -2.348 -2.0353 10.317 15.1219)" gradientUnits="userSpaceOnUse">
<stop stop-color="white" stop-opacity="0.7"/>
<stop offset="1" stop-color="white" stop-opacity="0"/>
</radialGradient>
<radialGradient id="paint15_radial_4576_12238" cx="0" cy="0" r="1" gradientTransform="matrix(-1.01402 2.91152 -2.348 -2.0353 6.68279 15.1219)" gradientUnits="userSpaceOnUse">
<stop stop-color="white" stop-opacity="0.7"/>
<stop offset="1" stop-color="white" stop-opacity="0"/>
</radialGradient>
<radialGradient id="paint16_radial_4576_12238" cx="0" cy="0" r="1" gradientTransform="matrix(-0.212944 0.49308 -0.49308 -0.344688 9.82971 14.6482)" gradientUnits="userSpaceOnUse">
<stop stop-color="white" stop-opacity="0.7"/>
<stop offset="1" stop-color="white" stop-opacity="0"/>
</radialGradient>
<radialGradient id="paint17_radial_4576_12238" cx="0" cy="0" r="1" gradientTransform="matrix(-0.212944 0.49308 -0.49308 -0.344688 6.19543 14.6482)" gradientUnits="userSpaceOnUse">
<stop stop-color="white" stop-opacity="0.7"/>
<stop offset="1" stop-color="white" stop-opacity="0"/>
</radialGradient>
<linearGradient id="paint18_linear_4576_12238" x1="8.62525" y1="17.5455" x2="9.88735" y2="20.1913" gradientUnits="userSpaceOnUse">
<stop stop-color="#EEDBFF"/>
<stop offset="1" stop-color="#C29BE4"/>
</linearGradient>
<radialGradient id="paint19_radial_4576_12238" cx="0" cy="0" r="1" gradientUnits="userSpaceOnUse" gradientTransform="translate(9.11184 18.7315) rotate(85.81) scale(1.69499 1.4671)">
<stop offset="0.461527" stop-color="white" stop-opacity="0"/>
<stop offset="0.600361" stop-color="white"/>
<stop offset="0.757959" stop-color="white" stop-opacity="0"/>
</radialGradient>
<radialGradient id="paint20_radial_4576_12238" cx="0" cy="0" r="1" gradientUnits="userSpaceOnUse" gradientTransform="translate(9.15746 18.7467) rotate(74.1975) scale(1.67515 1.44992)">
<stop offset="0.696658" stop-color="#C29BE4" stop-opacity="0"/>
<stop offset="0.861784" stop-color="#9C68C9"/>
<stop offset="1" stop-color="#8800FF" stop-opacity="0"/>
</radialGradient>
<radialGradient id="paint21_radial_4576_12238" cx="0" cy="0" r="1" gradientTransform="matrix(-1.04444 2.79412 -2.41844 -1.95323 8.8388 18.3001)" gradientUnits="userSpaceOnUse">
<stop stop-color="white" stop-opacity="0.7"/>
<stop offset="1" stop-color="white" stop-opacity="0"/>
</radialGradient>
<linearGradient id="paint22_linear_4576_12238" x1="9.64206" y1="19.2524" x2="8.55731" y2="18.8689" gradientUnits="userSpaceOnUse">
<stop stop-color="#C29BE4"/>
<stop offset="1" stop-color="#D3B5ED"/>
</linearGradient>
<radialGradient id="paint23_radial_4576_12238" cx="0" cy="0" r="1" gradientTransform="matrix(-0.45143 1.29287 -1.0453 -0.903785 8.98392 18.5291)" gradientUnits="userSpaceOnUse">
<stop stop-color="white" stop-opacity="0.7"/>
<stop offset="1" stop-color="white" stop-opacity="0"/>
</radialGradient>
<linearGradient id="paint24_linear_4576_12238" x1="10.5328" y1="18.5334" x2="14.0212" y2="24.8674" gradientUnits="userSpaceOnUse">
<stop stop-color="#DAE8FF"/>
<stop offset="0.858628" stop-color="#DAE8FF" stop-opacity="0.5"/>
<stop offset="1" stop-color="#DAE8FF" stop-opacity="0"/>
</linearGradient>
<radialGradient id="paint25_radial_4576_12238" cx="0" cy="0" r="1" gradientTransform="matrix(-4.64242 -6.00494 4.98946 -1.71463 14.509 21.4352)" gradientUnits="userSpaceOnUse">
<stop stop-color="white" stop-opacity="0.7"/>
<stop offset="1" stop-color="white" stop-opacity="0"/>
</radialGradient>
<radialGradient id="paint26_radial_4576_12238" cx="0" cy="0" r="1" gradientUnits="userSpaceOnUse" gradientTransform="translate(11.8007 18.7462) rotate(90) scale(1.0036)">
<stop stop-color="white" stop-opacity="0.6"/>
<stop offset="1" stop-color="white" stop-opacity="0"/>
</radialGradient>
<radialGradient id="paint27_radial_4576_12238" cx="0" cy="0" r="1" gradientTransform="matrix(-0.784062 1.81552 -1.81552 -1.26914 11.5027 18.371)" gradientUnits="userSpaceOnUse">
<stop stop-color="white" stop-opacity="0.7"/>
<stop offset="1" stop-color="white" stop-opacity="0"/>
</radialGradient>
</defs>
</svg>
