<svg width="53" height="18" viewBox="0 0 53 18" fill="none" xmlns="http://www.w3.org/2000/svg">
<path d="M0 17.2031V0.234375H6.65625C10.5234 0.234375 12.7266 2.60156 12.7266 5.95312C12.7266 9.35156 10.4766 11.6719 6.5625 11.6719H3.51562V17.2031H0ZM3.51562 8.83594H6C8.08594 8.83594 9.09375 7.66406 9.09375 5.95312C9.09375 4.26562 8.08594 3.11719 6 3.11719H3.51562V8.83594ZM30.4922 8.71875C30.4922 14.25 27.0469 17.4375 22.5703 17.4375C18.0469 17.4375 14.625 14.2266 14.625 8.71875C14.625 3.1875 18.0469 0 22.5703 0C27.0469 0 30.4922 3.1875 30.4922 8.71875ZM26.9062 8.71875C26.9062 5.08594 25.1953 3.11719 22.5703 3.11719C19.9453 3.11719 18.2109 5.08594 18.2109 8.71875C18.2109 12.3516 19.9453 14.3203 22.5703 14.3203C25.1953 14.3203 26.9062 12.3516 26.9062 8.71875ZM33.0234 17.2031V0.234375H36.5391V7.75781H36.7734L42.9375 0.234375H47.1797L40.8516 7.82812L47.25 17.2031H43.0312L38.3203 10.1953L36.5391 12.3516V17.2031H33.0234ZM52.4531 0.234375V17.2031H48.9375V0.234375H52.4531Z" fill="#AFE8FF"/>
</svg>
