<svg width="21" height="24" viewBox="0 0 21 24" fill="none" xmlns="http://www.w3.org/2000/svg">
<path d="M11 14.5772V23.1H2.84302e-07C-0.000341126 21.7568 0.306813 20.4313 0.897929 19.2251C1.48904 18.019 2.34843 16.9641 3.41024 16.1414C4.47205 15.3187 5.70809 14.75 7.02367 14.4789C8.33924 14.2078 9.69943 14.2414 11 14.5772ZM8.8 13.2C5.1535 13.2 2.2 10.2465 2.2 6.6C2.2 2.9535 5.1535 0 8.8 0C12.4465 0 15.4 2.9535 15.4 6.6C15.4 10.2465 12.4465 13.2 8.8 13.2ZM15.4 17.6V14.3H17.6V17.6H20.9V19.8H17.6V23.1H15.4V19.8H12.1V17.6H15.4Z" fill="#FF8800"/>
</svg>
