<svg width="22" height="23" viewBox="0 0 22 23" fill="none" xmlns="http://www.w3.org/2000/svg">
<path d="M21.78 21.4566C21.78 21.7775 21.6525 22.0852 21.4256 22.3122C21.1987 22.5391 20.8909 22.6666 20.57 22.6666H1.21C0.889088 22.6666 0.58132 22.5391 0.354401 22.3122C0.127482 22.0852 2.9126e-07 21.7775 2.9126e-07 21.4566V8.73946C-0.000127635 8.55507 0.0418868 8.37309 0.122834 8.20742C0.203782 8.04175 0.321521 7.89677 0.46706 7.78356L10.1471 0.25494C10.3595 0.0897085 10.6209 0 10.89 0C11.1591 0 11.4205 0.0897085 11.6329 0.25494L21.3129 7.78356C21.4585 7.89677 21.5762 8.04175 21.6572 8.20742C21.7381 8.37309 21.7801 8.55507 21.78 8.73946V21.4566ZM10.5875 14.1962C10.0863 14.1962 9.68 14.6025 9.68 15.1037V20.2466H12.1V15.1037C12.1 14.6025 11.6937 14.1962 11.1925 14.1962H10.5875Z" fill="#FF8800"/>
</svg>
