<svg width="202" height="155" viewBox="0 0 202 155" fill="none" xmlns="http://www.w3.org/2000/svg">
<g filter="url(#filter0_f_2725_5371)">
<path d="M120.329 5C162.229 5 196.195 28.0144 196.195 65.2168C196.195 95.4501 173.763 121.705 142.87 130.48C144.38 132.31 146.428 134.183 149.101 135.641C156.585 139.723 159.307 132.239 166.451 135.641C173.595 139.043 173.255 144.486 171.895 147.548C170.534 150.61 154.545 147.548 145.699 147.548C136.854 147.548 127.328 150.27 125.967 147.548C125.003 145.62 125.405 138.917 126.688 133.355C124.591 133.515 122.47 133.599 120.329 133.599C116.943 133.599 113.608 133.393 110.339 132.999C111.688 138.627 112.128 145.579 111.144 147.548C109.783 150.269 100.257 147.548 91.4121 147.548C82.5667 147.548 66.5766 150.61 65.2158 147.548C63.8551 144.486 63.5152 139.043 70.6592 135.641C77.8035 132.239 80.5253 139.723 88.0098 135.641C91.109 133.95 93.3686 131.7 94.9229 129.608C81.6354 125.295 70.0537 117.712 61.3486 107.992C61.8744 111.52 62.1552 114.508 62.1553 116.665C62.1553 129.079 52.9223 139.493 40.4688 142.349C40.4055 143.732 40.5286 144.902 41.0537 145.165C42.4145 145.845 42.7548 143.124 47.5176 144.145C52.2805 145.165 50.5798 147.547 49.8994 148.567C49.2186 149.588 39.6936 148.227 36.9717 149.247C34.25 150.268 34.9303 145.845 35.2705 145.165C35.4153 144.875 35.6266 144.082 35.8594 143.041C35.1066 143.096 34.3452 143.126 33.5771 143.126C31.5931 143.126 29.6563 142.938 27.7861 142.582C28.0576 143.845 28.3092 144.834 28.4746 145.165C28.8148 145.846 29.495 150.268 26.7734 149.247C24.0517 148.227 14.5268 149.588 13.8457 148.567C13.1653 147.547 11.4646 145.165 16.2275 144.145C20.9902 143.124 21.3306 145.845 22.6914 145.165C23.3424 144.839 23.3747 143.118 23.2002 141.326C12.5481 137.48 5 127.889 5 116.665C5.00018 102.051 17.7946 49.2305 33.5771 49.2295C37.6009 49.2295 41.4295 52.6633 44.9023 58.0215C48.9932 25.0699 81.2017 5.0001 120.329 5Z" fill="#E9E9E9"/>
</g>
<defs>
<filter id="filter0_f_2725_5371" x="0" y="0" width="201.195" height="154.398" filterUnits="userSpaceOnUse" color-interpolation-filters="sRGB">
<feFlood flood-opacity="0" result="BackgroundImageFix"/>
<feBlend mode="normal" in="SourceGraphic" in2="BackgroundImageFix" result="shape"/>
<feGaussianBlur stdDeviation="2.5" result="effect1_foregroundBlur_2725_5371"/>
</filter>
</defs>
</svg>
