<svg width="293" height="157" viewBox="0 0 293 157" fill="none" xmlns="http://www.w3.org/2000/svg">
<path d="M216.329 12C258.229 12 292.195 35.0144 292.195 72.2168C292.195 102.45 269.763 128.705 238.87 137.48C240.38 139.31 242.428 141.183 245.101 142.641C252.585 146.723 255.307 139.239 262.451 142.641C269.595 146.043 269.255 151.486 267.895 154.548C266.534 157.61 250.545 154.548 241.699 154.548C232.854 154.548 223.328 157.27 221.967 154.548C221.003 152.62 221.405 145.917 222.688 140.355C220.591 140.515 218.47 140.599 216.329 140.599C212.943 140.599 209.608 140.393 206.339 139.999C207.688 145.627 208.128 152.579 207.144 154.548C205.783 157.269 196.257 154.548 187.412 154.548C178.567 154.548 162.577 157.61 161.216 154.548C159.855 151.486 159.515 146.043 166.659 142.641C173.803 139.239 176.525 146.723 184.01 142.641C187.109 140.95 189.369 138.7 190.923 136.608C177.635 132.295 166.054 124.712 157.349 114.992C157.874 118.52 158.155 121.508 158.155 123.665C158.155 136.079 148.922 146.493 136.469 149.349C136.406 150.732 136.529 151.902 137.054 152.165C138.415 152.845 138.755 150.124 143.518 151.145C148.28 152.165 146.58 154.547 145.899 155.567C145.219 156.588 135.694 155.227 132.972 156.247C130.25 157.268 130.93 152.845 131.271 152.165C131.415 151.875 131.627 151.082 131.859 150.041C131.107 150.096 130.345 150.126 129.577 150.126C127.593 150.126 125.656 149.938 123.786 149.582C124.058 150.845 124.309 151.834 124.475 152.165C124.815 152.846 125.495 157.268 122.773 156.247C120.052 155.227 110.527 156.588 109.846 155.567C109.165 154.547 107.465 152.165 112.228 151.145C116.99 150.124 117.331 152.845 118.691 152.165C119.342 151.839 119.375 150.118 119.2 148.326C108.548 144.48 101 134.889 101 123.665C101 109.051 113.795 56.2305 129.577 56.2295C133.601 56.2295 137.43 59.6633 140.902 65.0215C144.993 32.0699 177.202 12.0001 216.329 12Z" fill="#E9E9E9"/>
<path d="M123.5 60.2166C123.5 97.419 102.766 128.598 60.8661 128.598C18.9664 128.598 0 97.419 0 60.2166C0 23.0142 18.9664 0 60.8661 0C102.766 0 123.5 23.0142 123.5 60.2166Z" fill="#E9E9E9"/>
<path d="M28.5471 130.64C34.5347 127.374 37.3925 122.022 38.0729 119.754C40.7945 118.96 46.782 118.393 48.9594 122.475C51.681 127.578 53.0418 139.826 51.681 142.547C50.3202 145.269 40.7944 142.547 31.949 142.547C23.1036 142.547 7.11406 145.609 5.75323 142.547C4.39241 139.486 4.0522 134.042 11.1965 130.64C18.3409 127.238 21.0625 134.723 28.5471 130.64Z" fill="#E9E9E9"/>
<path d="M89.6375 130.64C83.6498 127.374 80.7921 122.022 80.1117 119.754C77.3901 118.96 71.4025 118.393 69.2252 122.475C66.5036 127.578 65.1427 139.826 66.5036 142.547C67.8644 145.269 77.3902 142.547 86.2356 142.547C95.0809 142.547 111.071 145.609 112.431 142.547C113.792 139.486 114.132 134.042 106.988 130.64C99.8437 127.238 97.122 134.723 89.6375 130.64Z" fill="#E9E9E9"/>
</svg>
